# Blender v2.80 (sub 75) OBJ File: 'Test_Scene.blend'
# www.blender.org
mtllib housess.mtl
o Cube.048_Cube.056
v 0.089389 -0.214058 0.452380
v 0.089908 -0.215391 0.459420
v 0.092122 -0.201179 0.454618
v 0.092641 -0.202512 0.461657
v 0.102426 -0.216575 0.450943
v 0.102945 -0.217908 0.457982
v 0.105158 -0.203696 0.453180
v 0.105677 -0.205029 0.460220
v 0.088032 -0.216974 0.459259
v 0.091557 -0.200359 0.462145
v 0.104028 -0.220061 0.457495
v 0.107554 -0.203446 0.460381
v 0.093868 -0.210824 0.468147
v 0.102872 -0.212562 0.467154
v 0.100389 -0.195894 0.461740
v 0.100355 -0.199592 0.480092
v 0.103724 -0.187226 0.463493
v 0.103690 -0.190924 0.481845
v 0.109233 -0.199166 0.461097
v 0.109199 -0.202865 0.479449
v 0.112568 -0.190498 0.462850
v 0.112534 -0.194197 0.481202
v 0.098867 -0.200478 0.479910
v 0.103170 -0.189295 0.482172
v 0.109719 -0.204493 0.479121
v 0.114021 -0.193311 0.481383
v 0.103380 -0.196882 0.486413
v 0.109488 -0.199142 0.485969
vt 0.375000 0.000000
vt 0.625000 0.000000
vt 0.625000 0.250000
vt 0.375000 0.250000
vt 0.625000 0.500000
vt 0.375000 0.500000
vt 0.625000 0.750000
vt 0.375000 0.750000
vt 0.625000 1.000000
vt 0.375000 1.000000
vt 0.125000 0.500000
vt 0.125000 0.750000
vt 0.625000 0.000000
vt 0.625000 0.250000
vt 0.625000 1.000000
vt 0.625000 0.750000
vt 0.625000 0.750000
vt 0.625000 1.000000
vt 0.625000 0.500000
vt 0.625000 0.250000
vt 0.625000 0.500000
vt 0.375000 0.000000
vt 0.625000 0.000000
vt 0.625000 0.250000
vt 0.375000 0.250000
vt 0.625000 0.500000
vt 0.375000 0.500000
vt 0.625000 0.750000
vt 0.375000 0.750000
vt 0.625000 1.000000
vt 0.375000 1.000000
vt 0.125000 0.500000
vt 0.125000 0.750000
vt 0.625000 0.000000
vt 0.625000 0.250000
vt 0.625000 1.000000
vt 0.625000 0.750000
vt 0.625000 0.750000
vt 0.625000 1.000000
vt 0.625000 0.500000
vt 0.625000 0.250000
vt 0.625000 0.500000
vn -0.9762 0.1884 0.1076
vn 0.2046 0.9644 0.1675
vn 0.9762 -0.1884 -0.1077
vn -0.2046 -0.9644 -0.1675
vn -0.0722 0.1856 -0.9800
vn -0.0862 -0.7919 0.6045
vn 0.1921 0.5198 0.8324
vn 0.9203 -0.2479 0.3026
vn -0.8612 0.0961 0.4990
vn -0.9357 0.3462 0.0680
vn 0.3529 0.9171 0.1855
vn 0.9357 -0.3462 -0.0680
vn -0.3529 -0.9171 -0.1855
vn 0.0018 0.1976 -0.9803
vn -0.2413 -0.7686 0.5925
vn 0.2386 0.4789 0.8448
vn 0.8531 -0.3968 0.3388
vn -0.8546 0.2352 0.4630
usemtl None
s off
f 1/1/1 2/2/1 4/3/1 3/4/1
f 3/4/2 4/3/2 8/5/2 7/6/2
f 7/6/3 8/5/3 6/7/3 5/8/3
f 5/8/4 6/7/4 2/9/4 1/10/4
f 3/11/5 7/6/5 5/8/5 1/12/5
f 4/3/5 2/2/5 9/13/5 10/14/5
f 9/15/6 11/16/6 14/17/6 13/18/6
f 2/9/5 6/7/5 11/16/5 9/15/5
f 8/5/5 4/3/5 10/14/5 12/19/5
f 6/7/5 8/5/5 12/19/5 11/16/5
f 12/19/7 10/14/7 13/20/7 14/21/7
f 11/16/8 12/19/8 14/17/8
f 10/14/9 9/13/9 13/20/9
f 15/22/10 16/23/10 18/24/10 17/25/10
f 17/25/11 18/24/11 22/26/11 21/27/11
f 21/27/12 22/26/12 20/28/12 19/29/12
f 19/29/13 20/28/13 16/30/13 15/31/13
f 17/32/14 21/27/14 19/29/14 15/33/14
f 18/24/14 16/23/14 23/34/14 24/35/14
f 23/36/15 25/37/15 28/38/15 27/39/15
f 16/30/14 20/28/14 25/37/14 23/36/14
f 22/26/14 18/24/14 24/35/14 26/40/14
f 20/28/14 22/26/14 26/40/14 25/37/14
f 26/40/16 24/35/16 27/41/16 28/42/16
f 25/37/17 26/40/17 28/38/17
f 24/35/18 23/34/18 27/41/18
